<svg id="Capa_1" enable-background="new 0 0 512 512" height="512" viewBox="0 0 512 512" width="512" xmlns="http://www.w3.org/2000/svg"><g><path d="m437.215 15-.75 239.36-.16 50.27h-360.77l.15-47.3.76-242.33z" fill="#f2eedf"/><path d="m437.215 15-.75 239.36-.16 50.27h-180.3v-289.63z" fill="#e8d9cd"/><path d="m256.005 206.03-27.8 25.4-67.82-39.48-84.7 55.38-.15 57.3h360.77l.16-60.27z" fill="#57d3ad"/><path d="m436.465 244.36-.16 60.27h-180.3v-98.6l65.16-59.55z" fill="#02afaa"/><path d="m256.005 30 10-15-10-15h-194.52l-.99 319.63h195.51l10-15-10-15h-165.42l.81-259.63z" fill="#e8ad8c"/><path d="m452.255 0-.99 319.63h-195.26v-30h165.35l.81-259.63h-166.16v-30z" fill="#d87f4a"/><g><path d="m135.442 422.279c-23.49 0-46.785-5.834-67.368-16.87l14.178-26.439c16.237 8.707 34.63 13.31 53.19 13.31s36.953-4.603 53.19-13.31l14.178 26.439c-20.582 11.036-43.877 16.87-67.368 16.87z" fill="#ff6c6c"/></g><g><path d="m323.365 405.41c-20.58 11.04-43.87 16.87-67.36 16.87s-46.79-5.83-67.37-16.87l14.18-26.44c16.23 8.71 34.63 13.31 53.19 13.31s36.95-4.6 53.19-13.31z" fill="#ff6c6c"/></g><g><g><path d="m376.559 422.278c-23.49 0-46.786-5.833-67.367-16.869l14.178-26.439c16.236 8.707 34.629 13.309 53.189 13.309 18.562 0 36.954-4.603 53.19-13.309l14.178 26.438c-20.58 11.036-43.876 16.87-67.368 16.87z" fill="#ff3f5c"/></g></g><path d="m309.195 378.97 14.17 26.44c-20.58 11.04-43.87 16.87-67.36 16.87v-30c18.56 0 36.95-4.6 53.19-13.31z" fill="#ff3f5c"/><circle cx="176.75" cy="115.869" fill="#fc0" r="45"/><g><path d="m90.163 352.913h-30v129.087h-20v30h70v-30h-20z" fill="#ffe370"/><path d="m210.721 352.913h-30v129.087h-20v30h70v-30h-20z" fill="#ffe370"/><g fill="#fc0"><path d="m331.279 352.913h-30v129.087h-20v30h70v-30h-20z"/><path d="m451.837 482v-129.087h-30v129.087h-20v30h70v-30z"/></g></g></g></svg>